# xmcd CD database file
#
# Track frame offsets:
#	150
#	11681
#	23270
#	39360
#	60740
#	75707
#	77369
#	92356
#	97138
#	119761
#	138894
#	154917
#	163273
#
# Disc length: 2467 seconds
#
# Revision: 0
# Processed by: cddbd v1.5.1PL2 Copyright (c) Steve Scherf et al.
# Submitted via: CDex 1.51
#
DISCID=9509a10d
DTITLE=B and The Buzz - Live From the Vineyard
DYEAR=2004
DGENRE=Jazz
TTITLE0=That'll Just About Knock Me Out
TTITLE1=You're Not the Only Oyster
TTITLE2=I'm Such a Hungry Man
TTITLE3=I Ain't Got Nothin' But the Blues
TTITLE4=Swinging on a Star
TTITLE5=Intro
TTITLE6=Smoke Smoke Smoke That Cigarette
TTITLE7=Intro
TTITLE8=Do You Call That a Buddy
TTITLE9=They Raided The Joint
TTITLE10=Somebody Done Hooodooed The Hoodoo Man
TTITLE11=Straighten Up and Fly Right
TTITLE12=Stormy Weather
EXTD=YEAR: 2004
EXTT0=
EXTT1=
EXTT2=
EXTT3=
EXTT4=
EXTT5=
EXTT6=
EXTT7=
EXTT8=
EXTT9=
EXTT10=
EXTT11=
EXTT12=
PLAYORDER=
